<?xml version="1.0" standalone="no"?>
<!DOCTYPE svg PUBLIC "-//W3C//DTD SVG 20010904//EN"
 "http://www.w3.org/TR/2001/REC-SVG-20010904/DTD/svg10.dtd">
<svg version="1.0" xmlns="http://www.w3.org/2000/svg"
 width="260.000000pt" height="260.000000pt" viewBox="0 0 260.000000 260.000000"
 preserveAspectRatio="xMidYMid meet">
<metadata>
Created by potrace 1.11, written by Peter Selinger 2001-2013
</metadata>
<g transform="translate(0.000000,260.000000) scale(0.100000,-0.100000)"
fill="#000000" stroke="none">
<path d="M1210 2494 c-14 -2 -59 -9 -100 -15 -374 -55 -709 -303 -884 -655
-81 -165 -120 -331 -120 -524 -1 -426 214 -805 582 -1027 191 -116 381 -168
612 -167 335 0 612 114 846 348 548 548 442 1453 -218 1864 -126 78 -254 128
-408 158 -77 15 -266 26 -310 18z m-203 -408 c132 -35 219 -99 269 -198 l27
-53 25 53 c43 92 147 168 272 198 59 14 200 19 200 7 0 -4 -69 -77 -152 -161
-123 -123 -147 -152 -123 -145 17 4 68 8 115 8 77 0 92 -4 160 -37 69 -33 200
-138 200 -159 0 -5 -95 -10 -212 -11 l-211 -3 51 -32 c58 -36 113 -106 141
-178 33 -86 47 -275 21 -275 -4 0 -102 96 -217 214 -178 182 -215 216 -247
221 -21 4 -48 2 -64 -4 -15 -7 -122 -106 -237 -221 -116 -116 -214 -210 -219
-210 -13 0 1 187 19 244 8 27 26 68 39 91 28 47 103 120 143 138 23 10 -8 13
-191 17 l-219 5 54 53 c123 122 290 179 419 142 30 -9 16 9 -118 143 -83 84
-152 156 -152 160 0 12 152 7 207 -7z m393 -706 c0 -11 -21 -94 -46 -185 -26
-90 -44 -171 -41 -180 5 -12 26 -15 112 -15 104 0 105 0 105 -24 0 -26 -68
-188 -230 -548 -66 -147 -83 -156 -69 -34 4 34 10 93 13 131 4 39 11 114 17
168 14 138 15 137 -81 137 -97 0 -110 5 -110 40 0 26 120 462 140 508 9 20 16
22 100 22 83 0 90 -2 90 -20z"/>
</g>
</svg>
